<svg width="70" height="70" viewBox="0 0 70 70" fill="none" xmlns="http://www.w3.org/2000/svg">
<path d="M35 2.91666C25.8183 2.91666 17.5 10.3629 17.5 19.5475C17.5 28.7292 25.0892 39.6929 35 55.4167C44.9108 39.6929 52.5 28.7292 52.5 19.5475C52.5 10.3629 44.1846 2.91666 35 2.91666ZM35 26.25C31.7771 26.25 29.1667 23.6396 29.1667 20.4167C29.1667 17.1937 31.7771 14.5833 35 14.5833C38.2229 14.5833 40.8333 17.1937 40.8333 20.4167C40.8333 23.6396 38.2229 26.25 35 26.25ZM70 67.0833H0L11.6667 43.75H20.8104C21.9333 45.6196 23.1379 47.5679 24.4037 49.5833H15.2717L9.43833 61.25H60.5588L54.7254 49.5833H45.5933C46.8621 47.5679 48.0667 45.6196 49.1867 43.75H58.3333L70 67.0833Z" fill="#E0E3DA"/>
</svg>
