<svg width="47" height="47" viewBox="0 0 47 47" fill="none" xmlns="http://www.w3.org/2000/svg">
<g clip-path="url(#clip0)">
<path d="M11.7892 14.4701C12.5705 13.912 13.4537 13.6535 14.3193 13.6535C16.168 13.6535 17.9462 14.8285 18.5298 16.7849C17.7817 16.2091 16.9043 15.9291 16.0211 15.9291C15.1242 15.9291 14.2214 16.217 13.4342 16.779C11.8695 17.8953 11.1762 19.7968 11.7794 21.5985C9.34713 19.8555 9.33733 16.2189 11.7892 14.4701ZM19.1153 39.478C21.0619 40.1321 27.0877 41.8006 34.0672 47L47 37.7763C43.6454 33.0723 44.5697 29.7823 41.2366 25.1097C38.961 21.9216 37.6588 21.8707 35.2892 22.3054L36.4622 23.9504C37.1692 24.9433 35.6691 26.0067 34.966 25.0158L33.9203 23.547C33.0684 22.3544 31.4156 23.0985 29.8998 23.4471L31.3235 25.4427C32.0285 26.4316 30.5343 27.5009 29.8274 26.508L28.5956 24.7808C27.7222 23.5548 26.0145 24.3734 24.4929 24.7612L25.9988 26.8723C26.7097 27.8671 25.2057 28.9265 24.5027 27.9376L18.3966 19.3875C16.5009 16.7281 12.3493 19.55 14.3115 22.3035L23.3296 34.9504C22.3622 34.592 20.6604 34.2669 19.55 34.2669C16.1151 34.2669 14.7933 38.0269 19.1153 39.478ZM12.6802 35.25H3.91667V7.83333H23.5V20.9307L27.4167 20.0083V3.91667C27.4167 1.75467 25.664 0 23.5 0H3.91667C1.75271 0 4.19064e-07 1.75467 4.19064e-07 3.91667V40.4944C-0.00195791 44.8282 6.86004 47 13.7181 47C17.2666 47 20.8053 46.4145 23.4001 45.2493C19.2465 43.3967 10.9099 42.1629 12.6802 35.25Z" fill="black"/>
</g>
<defs>
<clipPath id="clip0">
<rect width="47" height="47" fill="white"/>
</clipPath>
</defs>
</svg>
