<svg width="42" height="42" viewBox="0 0 42 42" fill="none" xmlns="http://www.w3.org/2000/svg">
<g clip-path="url(#clip0)">
<path fill-rule="evenodd" clip-rule="evenodd" d="M32.1723 39.8633C32.7358 40.2623 33.4621 40.362 34.1096 40.117C34.757 39.8703 35.2331 39.3173 35.3766 38.647C36.8973 31.5 40.5863 13.4103 41.9706 6.90902C42.0756 6.41902 41.9006 5.90977 41.5155 5.58252C41.1306 5.25527 40.5968 5.16077 40.1208 5.33752C32.7831 8.05352 10.1853 16.5323 0.948799 19.95C0.36255 20.167 -0.0189505 20.7305 0.000299515 21.3483C0.0212995 21.9678 0.4378 22.505 1.03805 22.6853C5.1803 23.9243 10.6175 25.648 10.6175 25.648C10.6175 25.648 13.1585 33.3218 14.4833 37.2243C14.6495 37.7143 15.0328 38.0993 15.5385 38.2323C16.0425 38.3635 16.5815 38.2253 16.9578 37.87C19.0858 35.861 22.3758 32.7548 22.3758 32.7548C22.3758 32.7548 28.6268 37.338 32.1723 39.8633ZM12.9048 24.6785L15.8431 34.37L16.4958 28.2328C16.4958 28.2328 27.8481 17.9935 34.3195 12.1573C34.5086 11.9858 34.5348 11.6988 34.3773 11.4975C34.2215 11.2963 33.9346 11.249 33.7193 11.3855C26.2188 16.1753 12.9048 24.6785 12.9048 24.6785Z" fill="white"/>
</g>
<defs>
<clipPath id="clip0">
<rect width="42" height="42" fill="white"/>
</clipPath>
</defs>
</svg>
