<svg width="42" height="42" viewBox="0 0 42 42" fill="none" xmlns="http://www.w3.org/2000/svg">
<g clip-path="url(#clip0)">
<path fill-rule="evenodd" clip-rule="evenodd" d="M22.561 24.0537C22.561 24.0537 23.3083 24.1202 23.709 23.6214L24.493 22.6362C24.871 22.1462 25.7845 21.8347 26.6788 22.3317C27.8618 23.0002 29.3913 24.0502 30.4395 25.0284C31.017 25.5149 31.1518 26.2324 30.758 26.9902L30.7545 27.0059C30.3485 27.7199 29.8078 28.3902 29.1235 29.0149L29.1078 29.0254C28.3378 29.6677 27.4523 30.0404 26.5055 29.7324L26.488 29.7079C24.787 29.2267 20.706 27.1459 18.1055 25.0722C13.8513 21.7157 10.8273 16.1787 9.99076 13.2107L9.96451 13.1932C9.6565 12.2429 10.0328 11.3574 10.6715 10.5892L10.6838 10.5752C11.3085 9.89094 11.977 9.34844 12.6928 8.94419L12.7085 8.94069C13.4645 8.54694 14.182 8.67994 14.6703 9.25919C15.3125 9.92244 16.5183 11.5184 17.3653 13.0199C17.8623 13.9124 17.5508 14.8277 17.0625 15.2039L16.0755 15.9879C15.5785 16.3904 15.6433 17.1377 15.6433 17.1377C15.6433 17.1377 17.1028 22.6607 22.561 24.0537ZM31.1483 19.4757C30.856 19.4757 30.618 19.2394 30.6163 18.9472C30.5918 15.7447 29.6293 13.1932 27.7568 11.3662C25.8808 9.53744 23.5095 8.59944 20.7095 8.58019C20.4155 8.57844 20.1793 8.33869 20.1828 8.04469C20.1845 7.75244 20.4208 7.51794 20.713 7.51794H20.7165C23.8 7.53894 26.418 8.57844 28.4988 10.6049C30.5813 12.6384 31.6523 15.4437 31.6785 18.9402C31.6803 19.2324 31.4458 19.4722 31.1518 19.4757H31.1483ZM28.357 18.3837H28.3448C28.0508 18.3767 27.818 18.1334 27.825 17.8412C27.867 16.0247 27.3473 14.5547 26.2395 13.3454C25.137 12.1397 23.6233 11.4817 21.6108 11.3347C21.3185 11.3119 21.098 11.0582 21.119 10.7659C21.1418 10.4737 21.3955 10.2532 21.6878 10.2742C23.9523 10.4404 25.7478 11.2332 27.0235 12.6279C28.3063 14.0279 28.9345 15.7902 28.8873 17.8639C28.8803 18.1527 28.644 18.3837 28.357 18.3837ZM25.6305 17.4702C25.3488 17.4702 25.1143 17.2497 25.1003 16.9644C25.011 15.1619 24.1605 14.2799 22.428 14.1854C22.134 14.1697 21.91 13.9194 21.9258 13.6272C21.9415 13.3332 22.19 13.1092 22.484 13.1249C24.773 13.2474 26.0435 14.5582 26.1608 16.9119C26.1765 17.2042 25.9508 17.4544 25.6568 17.4684L25.6305 17.4702ZM37.5603 23.5409C36.5015 32.0757 30.2593 32.6147 29.1078 32.9839C28.6178 33.1414 24.0643 34.2737 18.3418 33.9009C18.3418 33.9009 14.0753 39.0459 12.7435 40.3847C12.5353 40.5929 12.292 40.6769 12.1275 40.6384C11.8983 40.5824 11.8353 40.3094 11.8388 39.9139L11.8738 32.8859V32.8842C3.54025 30.5689 4.02501 21.8679 4.11951 17.3127C4.21401 12.7574 5.06976 9.02469 7.61251 6.51519C12.18 2.37819 21.5898 2.99594 21.5898 2.99594C29.5365 3.03094 33.3445 5.42319 34.2283 6.22469C37.1595 8.73419 38.6523 14.7419 37.5603 23.5409ZM36.4193 4.09319C35.3745 3.13419 31.157 0.0716868 21.763 0.0296868C21.763 0.0296868 10.6855 -0.638813 5.28501 4.31719C2.27851 7.32369 1.22151 11.7214 1.10951 17.1762C0.999255 22.6327 0.854005 32.8527 10.7065 35.6247L10.717 35.6282L10.71 39.8562C10.71 39.8562 10.6488 41.5694 11.7758 41.9194C13.139 42.3412 13.9388 41.0409 15.2425 39.6374C15.9565 38.8674 16.9418 37.7369 17.6873 36.8724C24.4265 37.4359 29.6083 36.1427 30.198 35.9519C31.5578 35.5092 39.2578 34.5239 40.5108 24.3022C41.8023 13.7637 39.8843 7.09969 36.4193 4.09319Z" fill="white"/>
</g>
<defs>
<clipPath id="clip0">
<rect width="42" height="42" fill="white"/>
</clipPath>
</defs>
</svg>
