<svg width="42" height="42" viewBox="0 0 42 42" fill="none" xmlns="http://www.w3.org/2000/svg">
<path d="M0.0997496 42L3.052 31.2148C1.23025 28.0578 0.273 24.479 0.27475 20.8092C0.28 9.33625 9.61625 0 21.0875 0C26.6543 0.00175 31.8798 2.17 35.8102 6.104C39.739 10.038 41.902 15.267 41.9003 20.8285C41.895 32.3032 32.5587 41.6395 21.0875 41.6395C17.605 41.6378 14.1732 40.7645 11.1335 39.1055L0.0997496 42ZM11.6445 35.3378C14.5775 37.079 17.3775 38.122 21.0805 38.1237C30.6145 38.1237 38.381 30.3643 38.3862 20.825C38.3898 11.2665 30.66 3.5175 21.0945 3.514C11.5535 3.514 3.79225 11.2735 3.78875 20.811C3.787 24.7048 4.928 27.6202 6.84425 30.6705L5.096 37.0545L11.6445 35.3378ZM31.5718 25.7757C31.4423 25.5588 31.0958 25.4293 30.5743 25.1685C30.0545 24.9077 27.4977 23.6495 27.02 23.4762C26.544 23.303 26.1975 23.2155 25.8492 23.737C25.5027 24.2568 24.5052 25.4293 24.2025 25.7757C23.8997 26.1222 23.5952 26.166 23.0755 25.9053C22.5557 25.6445 20.8792 25.0968 18.893 23.324C17.3477 21.945 16.303 20.2423 16.0002 19.7208C15.6975 19.201 15.9687 18.9193 16.2277 18.6602C16.4622 18.4275 16.7475 18.053 17.0082 17.7485C17.2725 17.4475 17.3582 17.2305 17.5332 16.8822C17.7065 16.5358 17.6207 16.2313 17.4895 15.9705C17.3583 15.7115 16.3187 13.1512 15.8865 12.11C15.463 11.0968 15.0343 11.2332 14.7157 11.2175L13.7182 11.2C13.3717 11.2 12.8082 11.3295 12.3322 11.851C11.8562 12.3725 10.5122 13.629 10.5122 16.1893C10.5122 18.7495 12.376 21.2222 12.635 21.5688C12.8957 21.9152 16.3012 27.1688 21.518 29.421C22.7587 29.9565 23.7282 30.2767 24.4825 30.5165C25.7285 30.912 26.8625 30.856 27.7585 30.723C28.7578 30.5742 30.835 29.4648 31.269 28.2502C31.703 27.034 31.703 25.9928 31.5718 25.7757Z" fill="white"/>
</svg>
